<svg width="94" height="166" viewBox="0 0 94 166" fill="none" xmlns="http://www.w3.org/2000/svg">
<g clip-path="url(#clip0_696_1242)">
<path fill-rule="evenodd" clip-rule="evenodd" d="M46.7615 12.3993C32.3761 26.8473 22.8009 47.0861 21.3226 69.9163C18.309 116.678 50.4347 156.57 93.0793 159.024L92.6813 165.239C48.7402 162.705 15.648 121.608 18.7525 73.4251C20.3332 48.9552 30.9432 27.3748 46.7729 12.3993H46.7615Z" fill="#ED923A" fill-opacity="0.3"/>
<path fill-rule="evenodd" clip-rule="evenodd" d="M65.6812 160.389C57.3683 163.106 52.3874 155.366 45.3482 154.14C38.309 152.913 36.1028 157.144 31.4062 158.68C42.0276 167.223 53.4791 167.716 65.6698 160.389H65.6812Z" fill="#ED923A" fill-opacity="0.3"/>
<path fill-rule="evenodd" clip-rule="evenodd" d="M50.7055 149.22C42.1084 150.046 38.6513 141.308 32.0101 138.522C25.3689 135.735 22.4577 139.416 17.6133 139.886C26.4379 150.676 37.5027 153.715 50.7055 149.22Z" fill="#ED923A" fill-opacity="0.3"/>
<path fill-rule="evenodd" clip-rule="evenodd" d="M34.7884 132.055C27.101 131.401 25.2133 123.088 19.732 119.556C14.2394 116.024 11.1917 118.811 6.84766 118.444C13.1818 129.441 22.5409 133.924 34.7998 132.055H34.7884Z" fill="#ED923A" fill-opacity="0.3"/>
<path fill-rule="evenodd" clip-rule="evenodd" d="M26.0426 115.439C19.0262 113.157 18.7873 104.982 14.3409 100.487C9.89451 95.9917 6.55117 97.941 2.59375 96.6567C6.48294 108.307 14.3523 114.522 26.054 115.428L26.0426 115.439Z" fill="#ED923A" fill-opacity="0.3"/>
<path fill-rule="evenodd" clip-rule="evenodd" d="M20.51 98.3995C13.9825 94.799 15.0514 86.6806 11.4011 81.3944C7.75067 76.1083 4.15715 77.3925 0.472656 75.3629C2.42862 87.6208 9.16079 95.2577 20.51 98.3995Z" fill="#ED923A" fill-opacity="0.3"/>
<path fill-rule="evenodd" clip-rule="evenodd" d="M18.8818 79.8238C13.2641 74.744 15.9138 67.0384 13.4233 60.984C10.9329 54.9296 7.18014 55.3309 4.00738 52.4642C3.4729 64.94 8.48791 74.0446 18.8818 79.8238Z" fill="#ED923A" fill-opacity="0.3"/>
<path fill-rule="evenodd" clip-rule="evenodd" d="M21.0126 59.0573C17.3509 52.9799 21.513 46.9714 20.7966 40.9399C20.0915 34.8969 16.7368 34.1745 14.6671 30.7345C11.1987 41.5361 13.3707 50.9847 21.0126 59.0573Z" fill="#ED923A" fill-opacity="0.3"/>
<path fill-rule="evenodd" clip-rule="evenodd" d="M25.1384 41.4563C23.5805 35.1037 28.6523 31.2279 29.5962 25.8157C30.5401 20.4034 27.8791 18.7522 27.0034 15.1631C21.2947 23.3847 20.7261 32.1567 25.1498 41.4448L25.1384 41.4563Z" fill="#ED923A" fill-opacity="0.3"/>
<path fill-rule="evenodd" clip-rule="evenodd" d="M33.8566 27.0997C33.3107 22.2722 37.3591 20.0018 38.5418 16.149C39.7245 12.2962 37.9391 10.7826 37.6321 8.06494C32.7194 13.4543 31.4799 19.8068 33.8452 27.0997H33.8566Z" fill="#ED923A" fill-opacity="0.3"/>
<path fill-rule="evenodd" clip-rule="evenodd" d="M42.4844 15.4151C43.3146 11.2183 47.2606 10.6105 49.2507 7.77824C51.2521 4.94596 50.1832 3.12275 50.6494 0.749146C45.1682 3.67316 42.473 8.59237 42.4844 15.4151Z" fill="#ED923A" fill-opacity="0.3"/>
<path fill-rule="evenodd" clip-rule="evenodd" d="M77.2067 154.483C72.0552 148.372 75.535 141.136 73.6359 134.623C71.7368 128.099 67.9158 127.823 65.0046 124.383C63.1737 136.779 67.3017 146.812 77.2067 154.495V154.483Z" fill="#ED923A" fill-opacity="0.3"/>
<path fill-rule="evenodd" clip-rule="evenodd" d="M62.2463 147.179C57.2313 141.113 60.7907 133.878 59.0167 127.387C57.2427 120.897 53.4559 120.634 50.6243 117.216C48.6114 129.578 52.5575 139.565 62.2463 147.179Z" fill="#ED923A" fill-opacity="0.3"/>
<path fill-rule="evenodd" clip-rule="evenodd" d="M45.5275 133.362C42.2866 126.768 46.9718 121.115 46.7216 114.9C46.4714 108.674 43.1281 107.562 41.2972 103.846C36.9418 114.453 38.4201 124.303 45.5275 133.373V133.362Z" fill="#ED923A" fill-opacity="0.3"/>
<path fill-rule="evenodd" clip-rule="evenodd" d="M32.7816 116.161C31.0076 109.408 36.3524 105.153 37.2735 99.3512C38.1833 93.5491 35.3176 91.8405 34.3055 88.0336C28.3466 96.9317 27.8917 106.334 32.7816 116.161Z" fill="#ED923A" fill-opacity="0.3"/>
<path fill-rule="evenodd" clip-rule="evenodd" d="M25.4242 95.1433C24.7305 88.9283 29.9616 86.0043 31.4854 81.0392C33.0206 76.0741 30.7235 74.1363 30.3368 70.6274C23.9913 77.5533 22.3879 85.752 25.4242 95.1433Z" fill="#ED923A" fill-opacity="0.3"/>
<path fill-rule="evenodd" clip-rule="evenodd" d="M24.1349 73.3564C24.84 67.7721 29.9574 66.5337 32.3227 62.6006C34.6881 58.6675 33.1188 56.3971 33.5054 53.2438C26.5799 57.6814 23.4868 64.4123 24.1349 73.3564Z" fill="#ED923A" fill-opacity="0.3"/>
<path fill-rule="evenodd" clip-rule="evenodd" d="M27.2656 52.8655C29.0283 48.2559 33.6225 48.4737 36.4541 45.6988C39.2744 42.9124 38.4215 40.5732 39.4108 37.9702C32.6104 40.0457 28.5848 45.0452 27.2656 52.8655Z" fill="#ED923A" fill-opacity="0.3"/>
<path fill-rule="evenodd" clip-rule="evenodd" d="M33.543 37.1792C35.715 33.4869 39.6497 34.4616 42.4927 32.5352C45.3243 30.6088 44.9149 28.4301 46.143 26.3431C39.9908 26.9738 35.806 30.6202 33.543 37.1792Z" fill="#ED923A" fill-opacity="0.3"/>
<path fill-rule="evenodd" clip-rule="evenodd" d="M41.457 23.2123C43.5153 20.4144 46.6312 21.584 49.0762 20.2883C51.5212 18.9925 51.3733 17.1808 52.5333 15.5984C47.4955 15.5181 43.811 18.0867 41.457 23.2008V23.2123Z" fill="#ED923A" fill-opacity="0.3"/>
<path fill-rule="evenodd" clip-rule="evenodd" d="M50.8633 10.2553C52.8306 6.91853 56.3787 7.80146 58.9373 6.05852C61.496 4.32705 61.1321 2.35478 62.2352 0.462769C56.6743 1.02464 52.8989 4.32705 50.8633 10.2439V10.2553Z" fill="#ED923A" fill-opacity="0.3"/>
</g>
<defs>
<clipPath id="clip0_696_1242">
<rect width="92.59" height="165.052" fill="white" transform="translate(0.472656 0.473999)"/>
</clipPath>
</defs>
</svg>
