<svg width="94" height="166" viewBox="0 0 94 166" fill="none" xmlns="http://www.w3.org/2000/svg">
<g clip-path="url(#clip0_696_1264)">
<path fill-rule="evenodd" clip-rule="evenodd" d="M47.0588 12.3993C61.4442 26.8473 71.0194 47.0861 72.4977 69.9163C75.5113 116.678 43.3857 156.57 0.74102 159.024L1.13903 165.239C45.0801 162.705 78.1723 121.608 75.0678 73.4251C73.4871 48.9552 62.8771 27.3748 47.0474 12.3993H47.0588Z" fill="#ED923A" fill-opacity="0.3"/>
<path fill-rule="evenodd" clip-rule="evenodd" d="M28.1313 160.389C36.4442 163.106 41.4251 155.366 48.4643 154.14C55.5035 152.913 57.7097 157.144 62.4062 158.68C51.7849 167.223 40.3334 167.716 28.1427 160.389H28.1313Z" fill="#ED923A" fill-opacity="0.3"/>
<path fill-rule="evenodd" clip-rule="evenodd" d="M43.1109 149.22C51.708 150.046 55.1651 141.308 61.8063 138.522C68.4475 135.735 71.3587 139.416 76.2031 139.886C67.3785 150.676 56.3137 153.715 43.1109 149.22Z" fill="#ED923A" fill-opacity="0.3"/>
<path fill-rule="evenodd" clip-rule="evenodd" d="M59.0241 132.054C66.7115 131.401 68.5992 123.087 74.0805 119.556C79.5731 116.024 82.6208 118.81 86.9648 118.443C80.6307 129.44 71.2716 133.923 59.0127 132.054H59.0241Z" fill="#ED923A" fill-opacity="0.3"/>
<path fill-rule="evenodd" clip-rule="evenodd" d="M67.7816 115.439C74.7981 113.157 75.0369 104.982 79.4833 100.487C83.9297 95.9917 87.273 97.941 91.2305 96.6567C87.3413 108.307 79.4719 114.522 67.7702 115.428L67.7816 115.439Z" fill="#ED923A" fill-opacity="0.3"/>
<path fill-rule="evenodd" clip-rule="evenodd" d="M73.3065 98.3995C79.8339 94.799 78.765 86.6806 82.4153 81.3944C86.0657 76.1083 89.6593 77.3925 93.3438 75.3629C91.3878 87.6208 84.6556 95.2577 73.3065 98.3995Z" fill="#ED923A" fill-opacity="0.3"/>
<path fill-rule="evenodd" clip-rule="evenodd" d="M74.9307 79.8238C80.5484 74.744 77.8987 67.0384 80.3892 60.984C82.8796 54.9296 86.6324 55.3309 89.8051 52.4642C90.3396 64.94 85.3246 74.0446 74.9307 79.8238Z" fill="#ED923A" fill-opacity="0.3"/>
<path fill-rule="evenodd" clip-rule="evenodd" d="M72.8038 59.0573C76.4655 52.9799 72.3034 46.9714 73.0199 40.9399C73.7249 34.8969 77.0796 34.1745 79.1493 30.7345C82.6177 41.5361 80.4457 50.9847 72.8038 59.0573Z" fill="#ED923A" fill-opacity="0.3"/>
<path fill-rule="evenodd" clip-rule="evenodd" d="M68.678 41.4559C70.2359 35.1033 65.1641 31.2276 64.2202 25.8153C63.2763 20.403 65.9373 18.7518 66.813 15.1627C72.5217 23.3844 73.0903 32.1564 68.6666 41.4444L68.678 41.4559Z" fill="#ED923A" fill-opacity="0.3"/>
<path fill-rule="evenodd" clip-rule="evenodd" d="M59.9676 27.0998C60.5135 22.2723 56.4651 20.0019 55.2824 16.1491C54.0997 12.2963 55.8851 10.7827 56.1922 8.06506C61.1048 13.4544 62.3444 19.807 59.979 27.0998H59.9676Z" fill="#ED923A" fill-opacity="0.3"/>
<path fill-rule="evenodd" clip-rule="evenodd" d="M51.3398 15.4154C50.5097 11.2186 46.5636 10.6109 44.5735 7.7786C42.5721 4.94633 43.641 3.12312 43.1748 0.749512C48.656 3.67352 51.3512 8.59274 51.3398 15.4154Z" fill="#ED923A" fill-opacity="0.3"/>
<path fill-rule="evenodd" clip-rule="evenodd" d="M16.6058 154.483C21.7573 148.372 18.2775 141.136 20.1766 134.623C22.0757 128.099 25.8967 127.823 28.8079 124.383C30.6388 136.779 26.5108 146.812 16.6058 154.495V154.483Z" fill="#ED923A" fill-opacity="0.3"/>
<path fill-rule="evenodd" clip-rule="evenodd" d="M31.574 147.179C36.589 141.113 33.0296 133.878 34.8036 127.387C36.5776 120.897 40.3645 120.634 43.1961 117.216C45.2089 129.578 41.2628 139.565 31.574 147.179Z" fill="#ED923A" fill-opacity="0.3"/>
<path fill-rule="evenodd" clip-rule="evenodd" d="M48.2889 133.362C51.5299 126.768 46.8446 121.115 47.0948 114.9C47.345 108.674 50.6883 107.562 52.5192 103.846C56.8746 114.453 55.3963 124.303 48.2889 133.373V133.362Z" fill="#ED923A" fill-opacity="0.3"/>
<path fill-rule="evenodd" clip-rule="evenodd" d="M61.0348 116.161C62.8088 109.408 57.464 105.153 56.5429 99.3512C55.6331 93.5491 58.4988 91.8405 59.5109 88.0336C65.4698 96.9317 65.9247 106.334 61.0348 116.161Z" fill="#ED923A" fill-opacity="0.3"/>
<path fill-rule="evenodd" clip-rule="evenodd" d="M68.4039 95.1433C69.0976 88.9283 63.8666 86.0043 62.3427 81.0392C60.8075 76.0741 63.1046 74.1363 63.4913 70.6274C69.8368 77.5533 71.4402 85.752 68.4039 95.1433Z" fill="#ED923A" fill-opacity="0.3"/>
<path fill-rule="evenodd" clip-rule="evenodd" d="M69.6815 73.3564C68.9764 67.7721 63.859 66.5337 61.4937 62.6006C59.1283 58.6675 60.6977 56.3971 60.311 53.2438C67.2365 57.6814 70.3297 64.4123 69.6815 73.3564Z" fill="#ED923A" fill-opacity="0.3"/>
<path fill-rule="evenodd" clip-rule="evenodd" d="M66.5508 52.8655C64.7881 48.2559 60.1939 48.4737 57.3623 45.6988C54.5421 42.9124 55.3949 40.5732 54.4056 37.9702C61.206 40.0457 65.2316 45.0452 66.5508 52.8655Z" fill="#ED923A" fill-opacity="0.3"/>
<path fill-rule="evenodd" clip-rule="evenodd" d="M60.2695 37.1792C58.0975 33.4869 54.1628 34.4616 51.3198 32.5352C48.4882 30.6088 48.8976 28.4301 47.6695 26.3431C53.8217 26.9738 58.0065 30.6202 60.2695 37.1792Z" fill="#ED923A" fill-opacity="0.3"/>
<path fill-rule="evenodd" clip-rule="evenodd" d="M52.3594 23.2125C50.3011 20.4146 47.1852 21.5842 44.7402 20.2885C42.2952 18.9928 42.4431 17.181 41.2831 15.5986C46.3209 15.5184 50.0054 18.0869 52.3594 23.2011V23.2125Z" fill="#ED923A" fill-opacity="0.3"/>
<path fill-rule="evenodd" clip-rule="evenodd" d="M42.9531 10.2553C40.9858 6.91853 37.4378 7.80146 34.8791 6.05852C32.3204 4.32705 32.6843 2.35478 31.5812 0.462769C37.1421 1.02464 40.9176 4.32705 42.9531 10.2439V10.2553Z" fill="#ED923A" fill-opacity="0.3"/>
</g>
<defs>
<clipPath id="clip0_696_1264">
<rect width="92.59" height="165.052" fill="white" transform="matrix(-1 0 0 1 93.3438 0.473999)"/>
</clipPath>
</defs>
</svg>
