<svg width="60" height="60" viewBox="0 0 60 60" fill="none" xmlns="http://www.w3.org/2000/svg">
<circle cx="30" cy="30" r="28.875" transform="matrix(-1 0 0 1 60 0)" stroke="white" stroke-width="2.25"/>
<path d="M16.6162 29.1165L25.3662 20.3665C25.602 20.1388 25.9178 20.0128 26.2455 20.0157C26.5732 20.0185 26.8868 20.15 27.1185 20.3817C27.3503 20.6135 27.4817 20.927 27.4846 21.2548C27.4874 21.5825 27.3614 21.8983 27.1337 22.134L20.5175 28.7503H42.5C42.8315 28.7503 43.1495 28.882 43.3839 29.1164C43.6183 29.3508 43.75 29.6687 43.75 30.0003C43.75 30.3318 43.6183 30.6497 43.3839 30.8841C43.1495 31.1186 42.8315 31.2503 42.5 31.2503H20.5175L27.1337 37.8665C27.2531 37.9818 27.3484 38.1198 27.4139 38.2723C27.4794 38.4248 27.5139 38.5888 27.5153 38.7548C27.5168 38.9207 27.4851 39.0853 27.4223 39.239C27.3594 39.3926 27.2666 39.5321 27.1492 39.6495C27.0319 39.7669 26.8923 39.8597 26.7387 39.9225C26.5851 39.9854 26.4205 40.017 26.2545 40.0156C26.0885 40.0141 25.9245 39.9797 25.772 39.9141C25.6195 39.8486 25.4816 39.7534 25.3662 39.634L16.6162 30.884C16.3819 30.6496 16.2503 30.3317 16.2503 30.0003C16.2503 29.6688 16.3819 29.3509 16.6162 29.1165Z" fill="white"/>
</svg>
