<svg width="61" height="60" viewBox="0 0 61 60" fill="none" xmlns="http://www.w3.org/2000/svg">
<circle cx="30.5" cy="30" r="30" fill="white"/>
<path d="M43.8838 29.1165L35.1338 20.3665C34.898 20.1388 34.5822 20.0128 34.2545 20.0157C33.9268 20.0185 33.6132 20.15 33.3815 20.3817C33.1497 20.6135 33.0183 20.927 33.0154 21.2548C33.0126 21.5825 33.1386 21.8983 33.3663 22.134L39.9825 28.7503H18C17.6685 28.7503 17.3505 28.882 17.1161 29.1164C16.8817 29.3508 16.75 29.6687 16.75 30.0003C16.75 30.3318 16.8817 30.6497 17.1161 30.8841C17.3505 31.1186 17.6685 31.2503 18 31.2503H39.9825L33.3663 37.8665C33.2469 37.9818 33.1516 38.1198 33.0861 38.2723C33.0206 38.4248 32.9861 38.5888 32.9847 38.7548C32.9832 38.9207 33.0149 39.0853 33.0777 39.239C33.1406 39.3926 33.2334 39.5321 33.3508 39.6495C33.4681 39.7669 33.6077 39.8597 33.7613 39.9225C33.9149 39.9854 34.0795 40.017 34.2455 40.0156C34.4115 40.0141 34.5755 39.9797 34.728 39.9141C34.8805 39.8486 35.0184 39.7534 35.1338 39.634L43.8838 30.884C44.1181 30.6496 44.2497 30.3317 44.2497 30.0003C44.2497 29.6688 44.1181 29.3509 43.8838 29.1165Z" fill="url(#paint0_linear_1376_1668)"/>
<defs>
<linearGradient id="paint0_linear_1376_1668" x1="30.4999" y1="40.0156" x2="30.4999" y2="20.0156" gradientUnits="userSpaceOnUse">
<stop stop-color="#000E38"/>
<stop offset="1" stop-color="#3F186A"/>
</linearGradient>
</defs>
</svg>
